# xmcd
#
# Track frame offsets: 
#        150
#        25993
#        42312
#        59716
#        76655
#        94726
#        110315
#        131025
#        153466
#        175273
#        194232
#
# Disc length: 2812 seconds
#
# Revision: 0
# Processed by: cddbd v1.5.2PL0 Copyright (c) Steve Scherf et al.
# Submitted via: ExactAudioCopy v1.1
#
DISCID=960afa0b
DTITLE=The Covingtons - Peace in the Valley (Classic Country Hymns) - 
DTITLE=Disc 1 (Country Hymns)
DYEAR=2011
DGENRE=Country
TTITLE0=Just a Closer Walk to Thee
TTITLE1=Precious Memories
TTITLE2=Swing Low, Sweet Chariot
TTITLE3=Old Time Religion
TTITLE4=In the Garden
TTITLE5=The Old Country Church
TTITLE6=Take My Hand, Precious Lord
TTITLE7=Wings of a Dove
TTITLE8=In the Sweet By and By
TTITLE9=Standing on the Promises
TTITLE10=One Day at a Time
EXTD=
EXTT0=
EXTT1=
EXTT2=
EXTT3=
EXTT4=
EXTT5=
EXTT6=
EXTT7=
EXTT8=
EXTT9=
EXTT10=
PLAYORDER=
